<?xml version="1.0" encoding="UTF-8"?>
<!DOCTYPE svg PUBLIC "-//W3C//DTD SVG 1.1//EN" "http://www.w3.org/Graphics/SVG/1.1/DTD/svg11.dtd">
<svg xmlns="http://www.w3.org/2000/svg" version="1.1" width="1028px" height="1125px" style="shape-rendering:geometricPrecision; text-rendering:geometricPrecision; image-rendering:optimizeQuality; fill-rule:evenodd; clip-rule:evenodd" xmlns:xlink="http://www.w3.org/1999/xlink">
<g><path style="opacity:0.989" fill="#0f74bc" d="M 773.5,-0.5 C 777.5,-0.5 781.5,-0.5 785.5,-0.5C 803.394,7.30414 808.561,20.3041 801,38.5C 799.859,40.6089 798.359,42.4422 796.5,44C 713.833,95 631.167,146 548.5,197C 532.031,204.399 519.531,200.232 511,184.5C 507.165,173.013 509.665,163.179 518.5,155C 603.296,102.613 688.296,50.7795 773.5,-0.5 Z"/></g>
<g><path style="opacity:0.999" fill="#29268f" d="M 24.5,10.5 C 38.6184,10.4623 47.7851,17.129 52,30.5C 52.6667,120.167 52.6667,209.833 52,299.5C 46.3564,315.409 35.1898,321.576 18.5,318C 9.76549,314.263 4.26549,307.763 2,298.5C 1.33333,209.5 1.33333,120.5 2,31.5C 5.23117,19.7641 12.7312,12.7641 24.5,10.5 Z"/></g>
<g><path style="opacity:0.994" fill="#29268f" d="M 152.5,10.5 C 166.665,10.5212 175.832,17.1879 180,30.5C 180.667,141.833 180.667,253.167 180,364.5C 176.437,376.71 168.271,383.377 155.5,384.5C 141.14,383.306 132.64,375.639 130,361.5C 129.333,252.167 129.333,142.833 130,33.5C 132.347,20.6545 139.847,12.9879 152.5,10.5 Z"/></g>
<g><path style="opacity:0.994" fill="#29268f" d="M 282.5,10.5 C 297.924,10.7623 307.091,18.4289 310,33.5C 310.667,164.5 310.667,295.5 310,426.5C 305.924,444.625 294.757,451.792 276.5,448C 267.93,445.096 262.43,439.263 260,430.5C 259.333,297.167 259.333,163.833 260,30.5C 263.155,18.8538 270.655,12.1871 282.5,10.5 Z"/></g>
<g><path style="opacity:0.994" fill="#29268f" d="M 413.5,10.5 C 427.665,10.5212 436.832,17.1879 441,30.5C 441.667,188.833 441.667,347.167 441,505.5C 435.095,521.204 423.929,527.037 407.5,523C 397.836,519.006 392.336,511.839 391,501.5C 390.333,345.5 390.333,189.5 391,33.5C 393.347,20.6545 400.847,12.9879 413.5,10.5 Z"/></g>
<g><path style="opacity:0.989" fill="#0f74bc" d="M 1027.5,44.5 C 1027.5,47.5 1027.5,50.5 1027.5,53.5C 1025.54,61.2228 1021.21,67.3894 1014.5,72C 865.335,159.748 716.335,247.748 567.5,336C 552.188,346.043 538.688,344.21 527,330.5C 520.663,316.353 523.496,304.519 535.5,295C 688.26,204.569 841.26,114.569 994.5,25C 1011.1,22.1171 1022.1,28.6171 1027.5,44.5 Z"/></g>
<g><path style="opacity:0.989" fill="#0f74bc" d="M 991.5,174.5 C 1014.77,173.597 1024.94,184.597 1022,207.5C 1020.04,213.799 1016.2,218.632 1010.5,222C 859.833,311 709.167,400 558.5,489C 544.28,495.653 532.447,492.819 523,480.5C 516.399,466.322 519.232,454.488 531.5,445C 682.427,356.398 833.094,267.398 983.5,178C 986.309,176.907 988.976,175.74 991.5,174.5 Z"/></g>
<g><path style="opacity:0.987" fill="#21ade8" d="M 899.5,385.5 C 907.377,384.5 914.711,386 921.5,390C 949.337,407.751 977.004,425.751 1004.5,444C 1013.65,456.02 1013.82,468.187 1005,480.5C 996.58,487.526 987.08,489.359 976.5,486C 946.657,467.915 917.324,449.082 888.5,429.5C 879.265,419.087 878.098,407.753 885,395.5C 888.977,390.774 893.811,387.441 899.5,385.5 Z"/></g>
<g><path style="opacity:0.989" fill="#21ade8" d="M -0.5,429.5 C -0.5,426.167 -0.5,422.833 -0.5,419.5C 7.44955,399.899 21.1162,394.732 40.5,404C 152.002,470.252 263.669,536.252 375.5,602C 388.44,611.805 391.273,623.972 384,638.5C 375.097,649.737 363.93,652.57 350.5,647C 235.753,579.545 121.253,511.711 7,443.5C 3.31649,439.356 0.816485,434.689 -0.5,429.5 Z"/></g>
<g><path style="opacity:0.989" fill="#21ade8" d="M 774.5,460.5 C 781.514,459.805 788.181,460.972 794.5,464C 863.999,507.584 933.665,550.917 1003.5,594C 1017.66,605.149 1019.83,618.316 1010,633.5C 999.888,642.333 988.722,643.833 976.5,638C 905.833,594 835.167,550 764.5,506C 752.261,493.72 751.595,480.886 762.5,467.5C 766.062,464.241 770.062,461.907 774.5,460.5 Z"/></g>
<g><path style="opacity:0.99" fill="#21ade8" d="M 645.5,536.5 C 654.214,535.284 662.214,537.117 669.5,542C 783.003,607.919 896.67,673.586 1010.5,739C 1023.68,747.872 1027.18,759.706 1021,774.5C 1012.53,786.412 1001.36,789.912 987.5,785C 870.833,717.667 754.167,650.333 637.5,583C 623.261,569.295 622.928,555.295 636.5,541C 639.592,539.454 642.592,537.954 645.5,536.5 Z"/></g>
<g><path style="opacity:0.989" fill="#21ade8" d="M 32.5,556.5 C 39.7918,556.641 46.4584,558.808 52.5,563C 119.167,602.333 185.833,641.667 252.5,681C 263.684,691.634 265.517,703.801 258,717.5C 249.927,726.311 240.093,729.144 228.5,726C 159.167,685.333 89.8333,644.667 20.5,604C 8.82536,594.215 6.32536,582.382 13,568.5C 17.8946,561.807 24.3946,557.807 32.5,556.5 Z"/></g>
<g><path style="opacity:0.997" fill="#29268f" d="M 605.5,674.5 C 620.379,673.18 630.212,679.513 635,693.5C 635.667,829.833 635.667,966.167 635,1102.5C 629.454,1117.03 618.954,1122.86 603.5,1120C 592.507,1116.53 586.34,1109.03 585,1097.5C 584.333,964.5 584.333,831.5 585,698.5C 586.672,686.001 593.505,678.001 605.5,674.5 Z"/></g>
<g><path style="opacity:0.99" fill="#0f74bc" d="M 468.5,678.5 C 493.598,677.424 503.764,689.091 499,713.5C 497.698,717.274 495.531,720.441 492.5,723C 343.167,812.667 193.833,902.333 44.5,992C 30.5747,999.565 18.408,997.398 8,985.5C 1.04325,971.953 3.20992,960.12 14.5,950C 165.764,859.209 317.097,768.709 468.5,678.5 Z"/></g>
<g><path style="opacity:0.987" fill="#21ade8" d="M 27.5,703.5 C 32.7255,703.712 37.7255,704.878 42.5,707C 68.5,724.333 94.5,741.667 120.5,759C 132.009,770.282 133.509,782.782 125,796.5C 116.998,804.542 107.498,807.042 96.5,804C 69.3291,786.582 42.3291,768.915 15.5,751C 3.91551,741.145 1.41551,729.312 8,715.5C 12.9133,708.799 19.4133,704.799 27.5,703.5 Z"/></g>
<g><path style="opacity:0.993" fill="#29268f" d="M 736.5,732.5 C 753.034,731.222 763.201,738.555 767,754.5C 767.667,869.5 767.667,984.5 767,1099.5C 764.147,1113.02 755.814,1120.02 742,1120.5C 729.1,1120.28 720.767,1113.94 717,1101.5C 716.333,985.167 716.333,868.833 717,752.5C 719.682,741.986 726.182,735.319 736.5,732.5 Z"/></g>
<g><path style="opacity:0.997" fill="#29268f" d="M 865.5,799.5 C 880.743,797.864 890.909,804.197 896,818.5C 896.667,913.167 896.667,1007.83 896,1102.5C 890.454,1117.03 879.954,1122.86 864.5,1120C 853.21,1116.28 847.043,1108.44 846,1096.5C 845.333,1005.5 845.333,914.5 846,823.5C 847.567,811.438 854.067,803.438 865.5,799.5 Z"/></g>
<g><path style="opacity:0.99" fill="#0f74bc" d="M 475.5,829.5 C 496.963,829.462 506.796,840.129 505,861.5C 503.444,868.385 499.611,873.551 493.5,877C 356.167,957 218.833,1037 81.5,1117C 67.4264,1124.67 55.2597,1122.5 45,1110.5C 37.2528,1095.24 40.4195,1082.74 54.5,1073C 190.331,994.252 325.997,915.252 461.5,836C 466.147,833.506 470.814,831.339 475.5,829.5 Z"/></g>
<g><path style="opacity:0.997" fill="#29268f" d="M 994.5,868.5 C 1012.38,867.56 1022.55,875.893 1025,893.5C 1025.67,961.167 1025.67,1028.83 1025,1096.5C 1023.39,1111.88 1014.89,1119.88 999.5,1120.5C 987.22,1120.05 979.053,1114.05 975,1102.5C 974.333,1030.83 974.333,959.167 975,887.5C 978.086,877.579 984.586,871.246 994.5,868.5 Z"/></g>
<g><path style="opacity:0.988" fill="#0f74bc" d="M 335.5,1124.5 C 331.167,1124.5 326.833,1124.5 322.5,1124.5C 306.481,1117.46 300.981,1105.46 306,1088.5C 308.075,1084.42 310.908,1080.92 314.5,1078C 367.003,1044.92 419.336,1011.58 471.5,978C 485.809,970.661 497.975,973.161 508,985.5C 514.326,998.632 512.159,1010.13 501.5,1020C 446.506,1055.52 391.173,1090.35 335.5,1124.5 Z"/></g>
</svg>
